<?xml version="1.0" standalone="no"?><!DOCTYPE svg PUBLIC "-//W3C//DTD SVG 1.1//EN" "http://www.w3.org/Graphics/SVG/1.1/DTD/svg11.dtd"><svg t="1517830503047" class="icon" style="" viewBox="0 0 1024 1024" version="1.1" xmlns="http://www.w3.org/2000/svg" p-id="3312" xmlns:xlink="http://www.w3.org/1999/xlink" width="200" height="200"><defs><style type="text/css"></style></defs><path d="M853.333333 883.2H170.666667c-68.266667 0-128-55.466667-128-128V315.733333c0-72.533333 55.466667-128 128-128h187.733333C371.2 153.6 409.6 128 452.266667 128h123.733333c42.666667 0 76.8 25.6 93.866667 59.733333H853.333333c68.266667 0 128 55.466667 128 128v439.466667c0 72.533333-55.466667 128-128 128zM170.666667 273.066667c-21.333333 0-42.666667 17.066667-42.666667 42.666666v439.466667c0 25.6 17.066667 42.666667 42.666667 42.666667h682.666666c21.333333 0 42.666667-17.066667 42.666667-42.666667V315.733333c0-25.6-17.066667-42.666667-42.666667-42.666666h-221.866666c-25.6 0-42.666667-17.066667-42.666667-42.666667 0-8.533333-8.533333-17.066667-17.066667-17.066667h-119.466666c-12.8 0-21.333333 8.533333-21.333334 17.066667 0 25.6-17.066667 42.666667-42.666666 42.666667H170.666667z" p-id="3313"></path><path d="M512 725.333333c-106.666667 0-192-85.333333-192-192S405.333333 341.333333 512 341.333333s192 85.333333 192 192-85.333333 192-192 192z m0-341.333333c-81.066667 0-149.333333 68.266667-149.333333 149.333333S430.933333 682.666667 512 682.666667s149.333333-68.266667 149.333333-149.333334S593.066667 384 512 384z" p-id="3314"></path><path d="M810.666667 405.333333c25.6 0 42.666667-17.066667 42.666666-42.666666s-17.066667-42.666667-42.666666-42.666667-42.666667 17.066667-42.666667 42.666667 17.066667 42.666667 42.666667 42.666666z" p-id="3315"></path></svg>