<?xml version="1.0" standalone="no"?><!DOCTYPE svg PUBLIC "-//W3C//DTD SVG 1.1//EN" "http://www.w3.org/Graphics/SVG/1.1/DTD/svg11.dtd"><svg t="1517829213265" class="icon" style="" viewBox="0 0 1024 1024" version="1.1" xmlns="http://www.w3.org/2000/svg" p-id="12221" xmlns:xlink="http://www.w3.org/1999/xlink" width="200" height="200"><defs><style type="text/css"></style></defs><path d="M511.718 32c265.82 0 479.718 214.462 479.718 479.718s-214.462 479.718-479.718 479.718-479.718-214.462-479.718-479.718c0-265.255 214.462-479.718 479.718-479.718v0zM345.792 752.141h334.109c20.882 0 38.377-17.496 38.377-38.377v-168.184c0-20.882 15.803-38.377 36.684-38.377 1.693 0 3.386-1.693 3.386-1.693 0-1.693 0-3.386-1.693-5.079l-217.284-217.284c-14.674-14.674-40.071-14.674-54.18 0l-217.849 217.849c-1.693 1.693-1.693 3.386-1.693 5.079s1.693 1.693 3.386 1.693c20.882 0 36.684 17.496 36.684 38.377v0 168.184c1.693 19.753 19.189 37.813 40.071 37.813v0zM756.656 545.58h7.901c15.803 0 28.783-9.594 34.991-24.268s3.386-30.476-7.901-41.764l-225.75-225.75c-30.476-30.476-78.448-30.476-108.924 0l-225.75 225.75c-11.288 11.287-14.674 27.090-7.901 41.764 6.208 14.674 19.189 24.268 34.991 24.268h7.901v168.184c0 41.764 34.991 76.755 76.755 76.755h334.109c41.764 0 76.755-34.991 76.755-76.755v-168.184h2.822z" p-id="12222" fill="#bfbfbf"></path></svg>