<?xml version="1.0" encoding="utf-8"?>
<!-- Generator: Adobe Illustrator 21.0.0, SVG Export Plug-In . SVG Version: 6.00 Build 0)  -->
<svg version="1.1" id="图层_1" fill= "#6b6b6b" xmlns="http://www.w3.org/2000/svg" xmlns:xlink="http://www.w3.org/1999/xlink" x="0px" y="0px"
	 viewBox="0 0 200 200" style="enable-background:new 0 0 200 200;" xml:space="preserve">
<path d="M43.9,156.3h-0.2V43.8l112.5,0l0,111.7 M156.3,31.2H43.7c-6.9,0-12.4,5.6-12.4,12.5v112.6c0,6.9,5.6,12.4,12.4,12.4h112.6
	c6.9,0,12.4-5.6,12.5-12.4V43.7C168.7,36.8,163.2,31.3,156.3,31.2z M156.3,141.1"/>
<polygon points="74.6,158.3 56.9,158.3 158.5,56.9 158.5,74.4 "/>
<polygon points="39.6,147.3 39.9,128.3 128.5,41.9 146.5,41.4 "/>
<polygon points="117.6,160.3 99.9,160.3 162.5,97.9 162.5,115.4 "/>
<polygon points="84.3,39.6 102,39.6 39.5,102 39.5,84.5 "/>
</svg>
