<?xml version="1.0" encoding="utf-8"?>
<!-- Generator: Adobe Illustrator 21.0.0, SVG Export Plug-In . SVG Version: 6.00 Build 0)  -->
<svg version="1.1" id="图层_1" fill= "#6b6b6b" xmlns="http://www.w3.org/2000/svg" xmlns:xlink="http://www.w3.org/1999/xlink" x="0px" y="0px"
	 viewBox="0 0 200 200" style="enable-background:new 0 0 200 200;" xml:space="preserve">
<g>
	<path d="M112.2,106.2h-26c-3.5,0-5.2-2.8-5.2-6.2c0-3.5,1.8-6.2,5.2-6.2h26c3.5,0,6.2,2.8,6.2,6.2
		C118.4,103.5,115.7,106.2,112.2,106.2z"/>
	<path d="M112.2,81.7h-26c-3.5,0-6.2-2.8-6.2-6.2c0-3.5,2.8-6.2,6.2-6.2h26c3.5,0,6.2,2.8,6.2,6.2C118.4,79,115.7,81.7,112.2,81.7z"
		/>
	<path d="M150,56.4H50c-3.5,0-6.2-2.8-6.2-6.2c0-3.5,2.8-6.2,6.2-6.2h100c3.5,0,6.2,2.8,6.2,6.2C156.2,53.7,153.5,56.4,150,56.4z"/>
	<path d="M150,156H50c-3.5,0-6.2-2.8-6.2-6.2c0-3.5,2.8-6.2,6.2-6.2h100c3.5,0,6.2,2.8,6.2,6.2C156.2,153.3,153.5,156,150,156z"/>
	<path d="M112.2,130.2h-26c-3.5,0-5.2-2.8-5.2-6.2c0-3.5,1.8-6.2,5.2-6.2h26c3.5,0,6.2,2.8,6.2,6.2
		C118.4,127.5,115.7,130.2,112.2,130.2z"/>
	<g>
		<path d="M49.5,103.9h13.7l-5.3,4.6l0,0c-0.8,0.7-1.2,1.7-1.2,2.8c0,2.1,1.7,3.7,3.7,3.7c1,0,1.8-0.4,2.5-1l12.5-11.1
			c0.8-0.7,1.2-1.7,1.2-2.8c0-1.1-0.5-2.1-1.2-2.8L62.8,86c-0.7-0.6-1.5-1-2.5-1c-2.1,0-3.7,1.7-3.7,3.7c0,1.1,0.5,2.1,1.2,2.8
			l5.2,4.7H49.4"/>
		<path d="M65.3,96.2l-17.8,0.1c-0.9,0-1.8,0.3-2.5,1c-1.6,1.4-1.6,3.8-0.3,5.3c0.7,0.8,1.8,1.2,2.8,1.3h3"/>
	</g>
	<g>
		<path d="M147,96.2h-10.7l5.3-4.6l0,0c0.8-0.7,1.2-1.7,1.2-2.8c0-2.1-1.7-3.7-3.7-3.7c-1,0-1.8,0.4-2.5,1l-12.5,11.1
			c-0.8,0.7-1.2,1.7-1.2,2.8c0,1.1,0.5,2.1,1.2,2.8l12.5,11.2c0.7,0.6,1.5,1,2.5,1c2.1,0,3.7-1.7,3.7-3.7c0-1.1-0.5-2.1-1.2-2.8
			l-5.2-4.7H147"/>
		<path d="M137.7,103.8l14.8-0.1c0.9,0,1.8-0.3,2.5-1c1.6-1.4,1.6-3.8,0.3-5.3c-0.7-0.8-1.8-1.2-2.8-1.3h-6"/>
	</g>
</g>
</svg>
