<?xml version="1.0" encoding="utf-8"?>
<!-- Generator: Adobe Illustrator 21.0.0, SVG Export Plug-In . SVG Version: 6.00 Build 0)  -->
<svg version="1.1" id="图层_1" fill= "#6b6b6b" xmlns="http://www.w3.org/2000/svg" xmlns:xlink="http://www.w3.org/1999/xlink" x="0px" y="0px"
	 viewBox="0 0 200 200" style="enable-background:new 0 0 200 200;" xml:space="preserve">
<style type="text/css">
	.st0{fill:#FFFFFF;}
</style>
<g>
	<path d="M51.1,175c1.6,0,2.9-0.5,4.2-1.4c1.2-0.9,2.3-2.2,3.2-3.7c0.9-1.6,1.7-3.3,2.4-5.1c0.7-1.8,1.4-3.8,2.1-5.7l8.7-24.5h56.4
		l11.7,32.6c0.7,2.4,1.8,4.4,3.3,5.8c1.5,1.5,3.4,2.2,5.8,2c3.7,0,6-1.2,7-3.5c1-2.3,0.9-5.2-0.2-8.6L110.9,32.4
		c-0.6-2.2-2-4.1-3.8-5.4c-1.8-1.3-4.3-2-7.2-2c-2.8,0-5.1,0.7-6.9,2c-1.8,1.4-3.1,3.3-3.7,5.4l-44.7,130c-1.6,4.8-1.6,8.1,0,9.9
		C46.1,174.1,48.3,175,51.1,175z"/>
	<polygon class="st0" points="100,46.7 124.3,119.7 75.8,119.7 	"/>
</g>
</svg>
