<?xml version="1.0" standalone="no"?><!DOCTYPE svg PUBLIC "-//W3C//DTD SVG 1.1//EN" "http://www.w3.org/Graphics/SVG/1.1/DTD/svg11.dtd"><svg class="icon" width="200px" height="200.00px" viewBox="0 0 1024 1024" version="1.1" xmlns="http://www.w3.org/2000/svg"><path d="M768 288H256a32 32 0 0 1 0-64h512a32 32 0 0 1 0 64z m-96 128H352a32 32 0 0 1 0-64h320a32 32 0 0 1 0 64z m96 128H256a32 32 0 0 1 0-64h512a32 32 0 0 1 0 64z m-96 256H352a32 32 0 0 1 0-64h320a32 32 0 0 1 0 64z m-32-128h-256a32 32 0 0 1 0-64h256a32 32 0 0 1 0 64z" /></svg>