<?xml version="1.0" encoding="utf-8"?>
<!-- Generator: Adobe Illustrator 21.0.0, SVG Export Plug-In . SVG Version: 6.00 Build 0)  -->
<svg version="1.1" id="图层_1" fill= "#6b6b6b" xmlns="http://www.w3.org/2000/svg" xmlns:xlink="http://www.w3.org/1999/xlink" x="0px" y="0px"
	 viewBox="0 0 200 200" style="enable-background:new 0 0 200 200;" xml:space="preserve">
<path d="M150,156.2H50c-3.5,0-6.2-2.8-6.2-6.2s2.8-6.2,6.2-6.2h100c3.5,0,6.2,2.8,6.2,6.2S153.5,156.2,150,156.2z M150,131.5H50
	c-3.5,0-6.2-2.8-6.2-6.2c0-3.5,2.8-6.2,6.2-6.2h100c3.5,0,6.2,2.8,6.2,6.2C156.2,128.8,153.5,131.5,150,131.5z M150,81.6H50
	c-3.5,0-6.2-2.8-6.2-6.2s2.8-6.2,6.2-6.2h100c3.5,0,6.2,2.8,6.2,6.2S153.5,81.6,150,81.6z M150,56.2H50c-3.5,0-6.2-2.8-6.2-6.2
	c0-3.5,2.8-6.2,6.2-6.2h100c3.5,0,6.2,2.8,6.2,6.2C156.2,53.5,153.5,56.2,150,56.2z M150,106.2H50c-3.5,0-6.2-2.8-6.2-6.2
	c0-3.5,2.8-6.2,6.2-6.2h100c3.5,0,6.2,2.8,6.2,6.2C156.2,103.5,153.5,106.2,150,106.2z"/>
</svg>
