<?xml version="1.0" encoding="utf-8"?>
<!-- Generator: Adobe Illustrator 21.0.0, SVG Export Plug-In . SVG Version: 6.00 Build 0)  -->
<svg version="1.1" id="图层_1" fill= "#6b6b6b" xmlns="http://www.w3.org/2000/svg" xmlns:xlink="http://www.w3.org/1999/xlink" x="0px" y="0px"
	 viewBox="0 0 200 200" style="enable-background:new 0 0 200 200;" xml:space="preserve">
<path d="M168.3,155.2v-99c0-2.3-1.9-4.2-4.2-4.2s-4.2,1.9-4.2,4.2v99c0,2.3,1.9,4.2,4.2,4.2C166.5,159.4,168.3,157.5,168.3,155.2z"
	/>
<path d="M141.9,149.2l-31.5-91.4c-0.5-1.5-1.4-2.9-2.7-3.8c-1.3-0.9-3-1.4-5.1-1.4c-2,0-3.6,0.5-4.8,1.4c-1.3,1-2.2,2.3-2.6,3.8
	L64.1,149c-1.1,3.4-1.1,5.7,0,6.9c1.1,1.2,2.7,1.9,4.6,1.9c1.1,0,2.1-0.3,2.9-1c0.8-0.7,1.6-1.5,2.2-2.6c0.6-1.1,1.2-2.3,1.7-3.6
	s1-2.6,1.5-4l6.1-17.2h39.5l8.2,22.8c0.5,1.7,1.3,3.1,2.3,4.1s2.4,1.5,4.1,1.4c2.6,0,4.2-0.8,4.9-2.5
	C142.8,153.6,142.7,151.5,141.9,149.2z M86,119l17-51.2l17,51.2H86z"/>
<path d="M46,153.6v-99c0-2.3-1.9-4.2-4.2-4.2s-4.2,1.9-4.2,4.2v99c0,2.3,1.9,4.2,4.2,4.2C44.2,157.8,46,155.9,46,153.6z"/>
</svg>
