<?xml version="1.0" encoding="utf-8"?>
<!-- Generator: Adobe Illustrator 21.0.0, SVG Export Plug-In . SVG Version: 6.00 Build 0)  -->
<svg version="1.1" id="图层_1" fill= "#6b6b6b" xmlns="http://www.w3.org/2000/svg" xmlns:xlink="http://www.w3.org/1999/xlink" x="0px" y="0px"
	 viewBox="0 0 200 200" style="enable-background:new 0 0 200 200;" xml:space="preserve">
<path d="M150,106.2H98c-3.5,0-6.2-2.8-6.2-6.2c0-3.5,2.8-6.2,6.2-6.2h52c3.5,0,6.2,2.8,6.2,6.2C156.2,103.5,153.5,106.2,150,106.2z"
	/>
<path d="M150,81.7H97c-3.5,0-6.2-2.8-6.2-6.2c0-3.5,2.8-6.2,6.2-6.2h53c3.5,0,6.2,2.8,6.2,6.2C156.2,79,153.5,81.7,150,81.7z"/>
<path d="M150,56.4H50c-3.5,0-6.2-2.8-6.2-6.2c0-3.5,2.8-6.2,6.2-6.2h100c3.5,0,6.2,2.8,6.2,6.2C156.2,53.7,153.5,56.4,150,56.4z"/>
<path d="M150,156H50c-3.5,0-6.2-2.8-6.2-6.2c0-3.5,2.8-6.2,6.2-6.2h100c3.5,0,6.2,2.8,6.2,6.2C156.2,153.3,153.5,156,150,156z"/>
<path d="M72.2,78.9c0.7,0.8,1.7,1.2,2.8,1.2c2.1,0,3.7-1.7,3.7-3.7c0-1-0.4-1.8-1-2.5L66.6,61.4c-0.7-0.8-1.7-1.2-2.8-1.2
	c-1.1,0-2.1,0.5-2.8,1.2L49.8,73.9c-0.6,0.7-1,1.5-1,2.5c0,2.1,1.7,3.7,3.7,3.7c1.1,0,2.1-0.5,2.8-1.2l4.7-5.2v52.7l-4.7-5.2
	c-0.7-0.8-1.7-1.2-2.8-1.2c-2.1,0-3.7,1.7-3.7,3.7c0,1,0.4,1.8,1,2.5L61,138.6c0.7,0.8,1.7,1.2,2.8,1.2c1.1,0,2.1-0.5,2.8-1.2
	l11.2-12.4c0.6-0.7,1-1.5,1-2.5c0-2.1-1.7-3.7-3.7-3.7c-1.1,0-2.1,0.5-2.8,1.2l-4.7,5.2V73.6L72.2,78.9L72.2,78.9z"/>
<path d="M150,130.2H98c-3.5,0-6.2-2.8-6.2-6.2c0-3.5,2.8-6.2,6.2-6.2h52c3.5,0,6.2,2.8,6.2,6.2C156.2,127.5,153.5,130.2,150,130.2z"
	/>
</svg>
