<?xml version="1.0" encoding="utf-8"?>
<!-- Generator: Adobe Illustrator 21.0.0, SVG Export Plug-In . SVG Version: 6.00 Build 0)  -->
<svg version="1.1" id="图层_1" xmlns="http://www.w3.org/2000/svg" xmlns:xlink="http://www.w3.org/1999/xlink" x="0px" y="0px"
	 viewBox="0 0 200 200" style="enable-background:new 0 0 200 200;" xml:space="preserve">
<style type="text/css">
	.st0{fill:#767676;}
</style>
<g>
	<polygon class="st0" points="7.7,40 7.7,28.3 169.9,190.8 158.4,190.8 	"/>
	<polygon class="st0" points="24,15.7 36.6,15.9 187.1,167.9 187.2,179.9 	"/>
	<polygon class="st0" points="8.3,83.7 7.3,69.8 128.6,190.4 116.2,190.4 	"/>
	<polygon class="st0" points="191.4,125.4 191.4,137.2 67.1,10.7 78.6,10.7 	"/>
</g>
<path class="st0" d="M14.5,16.6L14.5,16.6l170.7-0.2v166.7H15 M193.8,183.4V16.4c0-4.6-3.7-8.2-8.4-8.2H14.5c-4.6,0-8.2,3.7-8.2,8.2
	v166.9c0,4.6,3.7,8.2,7.2,8.4h170.9C190.1,191.7,193.6,187.9,193.8,183.4z"/>
<polygon class="st0" points="190,77 190,88.8 111.6,11.3 123.1,11.3 "/>
<polygon class="st0" points="191,32 191,43.8 159.6,12.3 171.1,12.3 "/>
<polygon class="st0" points="6.3,125.4 6.3,113.6 84.7,191.1 73.2,191.1 "/>
</svg>
