<?xml version="1.0" encoding="utf-8"?>
<!-- Generator: Adobe Illustrator 21.0.0, SVG Export Plug-In . SVG Version: 6.00 Build 0)  -->
<svg version="1.1" id="图层_1" xmlns="http://www.w3.org/2000/svg" xmlns:xlink="http://www.w3.org/1999/xlink" x="0px" y="0px"
	 viewBox="0 0 200 200" style="enable-background:new 0 0 200 200;" xml:space="preserve">
<style type="text/css">
	.st0{fill:#767676;}
</style>
<path class="st0" d="M76.6,156.3l47.4-47.4l32.2,32.2l0,15.2L76.6,156.3L76.6,156.3z M43.8,43.8l112.5,0l0,79.7l-27.8-27.8
	c-2.4-2.4-6.4-2.4-8.8,0c0,0,0,0,0,0l-60.7,60.7H43.8V43.8z M156.3,31.2H43.7c-6.9,0-12.4,5.6-12.4,12.5v112.6
	c0,6.9,5.6,12.4,12.4,12.4h112.6c6.9,0,12.4-5.6,12.5-12.4V43.7C168.7,36.8,163.2,31.3,156.3,31.2z"/>
<path class="st0" d="M81.2,75c3.4,0,6.2,2.7,6.2,6.1c0,0,0,0.1,0,0.1c0,3.4-2.7,6.2-6.1,6.2c0,0-0.1,0-0.1,0c-3.4,0-6.2-2.7-6.2-6.1
	c0,0,0-0.1,0-0.1C75,77.7,77.7,75,81.2,75 M81.2,100c10.3,0,18.8-8.4,18.8-18.8s-8.4-18.8-18.8-18.8s-18.8,8.4-18.8,18.8
	S70.9,100,81.2,100"/>
</svg>
