<?xml version="1.0" encoding="utf-8"?>
<!-- Generator: Adobe Illustrator 21.0.0, SVG Export Plug-In . SVG Version: 6.00 Build 0)  -->
<svg version="1.1" id="图层_1" xmlns="http://www.w3.org/2000/svg" xmlns:xlink="http://www.w3.org/1999/xlink" x="0px" y="0px"
	 viewBox="0 0 200 200" style="enable-background:new 0 0 200 200;" xml:space="preserve">
<style type="text/css">
	.st0{fill:#767676;}
</style>
<path class="st0" d="M69.4,173.7l62-62l42.1,42.1v19.9H69.4L69.4,173.7z M26.5,26.5h147.2v104.3l-36.4-36.4c-3.1-3.1-8.4-3.1-11.5,0
	l0,0l-79.4,79.4H26.5V26.5z M173.6,10H26.3c-9,0-16.2,7.3-16.2,16.4v147.3c0,9,7.3,16.2,16.2,16.2h147.3c9,0,16.2-7.3,16.4-16.2
	V26.4C189.9,17.3,182.7,10.1,173.6,10z"/>
<path class="st0" d="M75.4,67.3c4.4,0,8.1,3.5,8.1,8v0.1c0,4.4-3.5,8.1-8,8.1h-0.1c-4.4,0-8.1-3.5-8.1-8v-0.1
	C67.3,70.8,70.8,67.3,75.4,67.3 M75.4,100c13.5,0,24.6-11,24.6-24.6S89,50.8,75.4,50.8s-24.6,11-24.6,24.6S61.9,100,75.4,100"/>
</svg>
