<?xml version="1.0" encoding="utf-8"?>
<!-- Generator: Adobe Illustrator 21.0.0, SVG Export Plug-In . SVG Version: 6.00 Build 0)  -->
<svg version="1.1" id="图层_1" xmlns="http://www.w3.org/2000/svg" xmlns:xlink="http://www.w3.org/1999/xlink" x="0px" y="0px"
	 viewBox="0 0 200 200" style="enable-background:new 0 0 200 200;" xml:space="preserve">
<style type="text/css">
	.st0{fill:#767676;}
</style>
<g>
	<path class="st0" d="M73.3,191h100.8c9.3,0,16.8-7.5,16.8-16.8V74.6V53.9v-28c0-9.3-7.5-16.8-16.8-16.8H145c-5.7,0-10.3,3.3-10.3,9
		c0,4.2,4.6,7.7,10.3,7.7h29.2v148.4H25.8V25.8h32.5c5.7,0,10.3-3.6,10.3-7.7c0-5.7-4.6-9-10.3-9H25.9c-9.3,0-16.8,7.5-16.8,16.8
		v148.2c0,9.3,7.5,16.8,16.8,16.8h26.7"/>
	<path class="st0" d="M68,80.8c3.8,3.8,8.9,1.9,16-5.3l7.4-7.4v64.7c0,5.7,3.3,18.3,9,18.3c5.7,0,9-12.6,9-18.3V67.6l6.6,6.6
		c8.2,8.2,12.7,11.2,17.3,6.6c4.5-4.5,2.1-8.5-2.6-13.4l0,0L107.3,44c-4.1-4.1-10.6-4.1-14.7,0l0,0L69.3,67.4
		C64.3,72.5,64.5,78,68,80.8z"/>
	<path class="st0" d="M91.4,132.8c0,13.2,1.1,18.3,9,18.3c8.7,0,9-6.6,9-18.3"/>
</g>
</svg>
