<?xml version="1.0" encoding="utf-8"?>
<!-- Generator: Adobe Illustrator 21.0.0, SVG Export Plug-In . SVG Version: 6.00 Build 0)  -->
<svg version="1.1" id="图层_1" xmlns="http://www.w3.org/2000/svg" xmlns:xlink="http://www.w3.org/1999/xlink" x="0px" y="0px"
	 viewBox="0 0 200 200" style="enable-background:new 0 0 200 200;" xml:space="preserve">
<style type="text/css">
	.st0{fill:#767676;}
</style>
<g>
	<polygon class="st0" points="12.8,35.2 12.8,23.5 85,95.9 73.5,95.9 	"/>
	<polygon class="st0" points="23.1,14.9 35.7,15.1 96.2,77 96.4,89 	"/>
	<polygon class="st0" points="11.4,63.8 11.4,51.9 55.8,96.5 44.3,96.5 	"/>
	<polygon class="st0" points="94.6,44.6 94.6,56.4 53.2,14.9 64.7,14.9 	"/>
</g>
<path class="st0" d="M13.7,15.8L13.7,15.8l170.7-0.2v166.7H14.2 M192.9,182.5V15.6c0-4.6-3.7-8.2-8.4-8.2H13.6
	c-4.6,0-8.2,3.7-8.2,8.2v166.9c0,4.6,3.7,8.2,8.2,8.4h170.9C189.2,190.8,192.7,187.1,192.9,182.5z"/>
<rect x="9.4" y="94.6" class="st0" width="181.1" height="8.9"/>
<rect x="8.6" y="94.6" transform="matrix(-1.836970e-16 1 -1 -1.836970e-16 198.2664 -3.354596e-02)" class="st0" width="181.1" height="8.9"/>
<g>
	<polygon class="st0" points="103.8,34.2 103.8,22.5 176,94.9 164.5,94.9 	"/>
	<polygon class="st0" points="114.1,13.9 126.7,14.1 187.2,76 187.4,88 	"/>
	<polygon class="st0" points="102.4,62.8 102.4,50.9 146.8,95.5 135.3,95.5 	"/>
	<polygon class="st0" points="185.6,43.6 185.6,55.4 144.2,13.9 155.7,13.9 	"/>
</g>
<g>
	<polygon class="st0" points="13.8,123.2 13.8,111.5 86,183.9 74.5,183.9 	"/>
	<polygon class="st0" points="24.1,102.9 36.7,103.1 97.2,165 97.4,177 	"/>
	<polygon class="st0" points="12.4,151.8 12.4,139.9 56.8,184.5 45.3,184.5 	"/>
	<polygon class="st0" points="95.6,132.6 95.6,144.4 54.2,102.9 65.7,102.9 	"/>
</g>
<g>
	<polygon class="st0" points="102.8,123.2 102.8,111.5 175,183.9 163.5,183.9 	"/>
	<polygon class="st0" points="113.1,102.9 125.7,103.1 186.2,165 186.4,177 	"/>
	<polygon class="st0" points="101.4,151.8 101.4,139.9 145.8,184.5 134.3,184.5 	"/>
	<polygon class="st0" points="184.6,132.6 184.6,144.4 143.2,102.9 154.7,102.9 	"/>
</g>
</svg>
