<?xml version="1.0" encoding="utf-8"?>
<!-- Generator: Adobe Illustrator 21.0.0, SVG Export Plug-In . SVG Version: 6.00 Build 0)  -->
<svg version="1.1" id="图层_1" xmlns="http://www.w3.org/2000/svg" xmlns:xlink="http://www.w3.org/1999/xlink" x="0px" y="0px"
	 viewBox="0 0 200 200" style="enable-background:new 0 0 200 200;" xml:space="preserve">
<style type="text/css">
	.st0{fill:#767676;}
</style>
<path class="st0" d="M184,14.7L184,14.7l0.2,170.4H16.8V15.4 M16.6,193.4h167.5c4.6,0,8.1-3.8,8.1-8.1V14.9c0-4.6-3.8-8.1-8.1-8.1
	H16.7c-4.6,0-8.1,3.8-8.1,8.1v170.3C8.5,189.6,12.3,193.2,16.6,193.4z"/>
<polygon class="st0" points="161.6,12.7 173.2,12.7 96,89.8 96,78.5 "/>
<polygon class="st0" points="185.5,21.8 185.2,34.3 127.4,90.5 115.7,90.9 "/>
<polygon class="st0" points="132.7,11.4 144.2,11.4 103.3,52 103.3,40.6 "/>
<polygon class="st0" points="100.3,149.2 104.8,132.2 185.5,51.5 185.5,62.8 "/>
<rect x="9.8" y="95.6" transform="matrix(5.145374e-15 1 -1 5.145374e-15 200.4835 -0.2506)" class="st0" width="181.1" height="8.9"/>
<polygon class="st0" points="98.7,118.5 101.2,104.3 141.8,65.5 141.6,76.8 "/>
<polygon class="st0" points="98.3,182.2 96.8,172.2 187.5,81.5 187.5,92.8 "/>
<polygon class="st0" points="128.3,188.2 116.8,188.2 187.5,117.5 187.5,128.8 "/>
<polygon class="st0" points="162.1,191.5 150.6,191.5 191.5,150.9 191.5,162.3 "/>
<polygon class="st0" points="71.6,12.7 83.2,12.7 17,78.8 17,67.5 "/>
<polygon class="st0" points="101.5,16.8 101.2,29.3 37.4,90.5 25.7,90.9 "/>
<polygon class="st0" points="42.7,11.4 54.2,11.4 13.3,52 13.3,40.6 "/>
<polygon class="st0" points="16.3,142.2 14.8,132.2 103.5,43.5 103.5,54.8 "/>
<polygon class="st0" points="15.7,111.5 11.2,104.3 51.8,65.5 51.6,76.8 "/>
<polygon class="st0" points="12.3,178.2 16.8,162.2 97.5,81.5 97.5,92.8 "/>
<polygon class="st0" points="38.3,188.2 26.8,188.2 97.5,117.5 97.5,128.8 "/>
<polygon class="st0" points="72.1,191.5 60.6,191.5 101.5,150.9 101.5,162.3 "/>
</svg>
