<?xml version="1.0" encoding="utf-8"?>
<!-- Generator: Adobe Illustrator 21.0.0, SVG Export Plug-In . SVG Version: 6.00 Build 0)  -->
<svg version="1.1" id="图层_1" xmlns="http://www.w3.org/2000/svg" xmlns:xlink="http://www.w3.org/1999/xlink" x="0px" y="0px"
	 viewBox="0 0 200 200" style="enable-background:new 0 0 200 200;" xml:space="preserve">
<style type="text/css">
	.st0{fill:#767676;}
</style>
<path class="st0" d="M14,16.5L14,16.5l170.4-0.2v167.4H14.7 M192.7,183.9V16.4c0-4.6-3.8-8.1-8.1-8.1H14.2c-4.6,0-8.1,3.8-8.1,8.1
	v167.4c0,4.6,3.8,8.1,8.1,8.1h170.3C188.9,192,192.5,188.2,192.7,183.9z"/>
<polygon class="st0" points="12,38.9 12,27.3 89.1,104.5 77.8,104.5 "/>
<polygon class="st0" points="21.1,15 33.6,15.3 89.8,73.1 90.2,84.8 "/>
<polygon class="st0" points="10.7,67.8 10.7,56.3 51.3,97.2 39.9,97.2 "/>
<polygon class="st0" points="148.5,100.2 131.5,95.7 50.8,15 62.1,15 "/>
<rect x="8.8" y="95.6" class="st0" width="181.1" height="8.9"/>
<polygon class="st0" points="117.8,101.8 103.5,99.3 64.8,58.7 76.1,58.9 "/>
<polygon class="st0" points="181.5,102.2 171.5,103.7 80.8,13 92.1,13 "/>
<polygon class="st0" points="187.5,72.2 187.5,83.7 116.8,13 128.1,13 "/>
<polygon class="st0" points="190.8,38.4 190.8,49.9 150.2,9 161.6,9 "/>
<polygon class="st0" points="12,128.9 12,117.3 78.1,183.5 66.8,183.5 "/>
<polygon class="st0" points="16.1,99 28.6,99.3 89.8,163.1 90.2,174.8 "/>
<polygon class="st0" points="10.7,157.8 10.7,146.3 51.3,187.2 39.9,187.2 "/>
<polygon class="st0" points="141.5,184.2 131.5,185.7 42.8,97 54.1,97 "/>
<polygon class="st0" points="110.8,184.8 103.5,189.3 64.8,148.7 76.1,148.9 "/>
<polygon class="st0" points="177.5,188.2 161.5,183.7 80.8,103 92.1,103 "/>
<polygon class="st0" points="187.5,162.2 187.5,173.7 116.8,103 128.1,103 "/>
<polygon class="st0" points="190.8,128.4 190.8,139.9 150.2,99 161.6,99 "/>
</svg>
