<?xml version="1.0" encoding="utf-8"?>
<!-- Generator: Adobe Illustrator 21.0.0, SVG Export Plug-In . SVG Version: 6.00 Build 0)  -->
<svg version="1.1" id="图层_1" fill= "#6b6b6b" xmlns="http://www.w3.org/2000/svg" xmlns:xlink="http://www.w3.org/1999/xlink" x="0px" y="0px"
	 viewBox="0 0 200 200" style="enable-background:new 0 0 200 200;" xml:space="preserve">
<path d="M150,156.2H50c-3.5,0-6.2-2.8-6.2-6.2s2.8-6.2,6.2-6.2h100c3.5,0,6.2,2.8,6.2,6.2S153.5,156.2,150,156.2z"/>
<path d="M150,131.5H50c-3.5,0-6.2-2.8-6.2-6.2c0-3.5,2.8-6.2,6.2-6.2h100c3.5,0,6.2,2.8,6.2,6.2C156.2,128.8,153.5,131.5,150,131.5z
	"/>
<path d="M150,106.2H50c-3.5,0-6.2-2.8-6.2-6.2c0-3.5,2.8-6.2,6.2-6.2h100c3.5,0,6.2,2.8,6.2,6.2C156.2,103.5,153.5,106.2,150,106.2z
	"/>
<path d="M117.7,61.7L117.7,61.7l-14.5-16.1l0,0c-0.9-1-2.2-1.6-3.6-1.6c-1.4,0-2.7,0.6-3.6,1.6l0,0L81.5,61.6l0,0
	c-0.8,0.9-1.3,2-1.3,3.2c0,2.7,2.2,4.8,4.8,4.8c1.4,0,2.7-0.6,3.6-1.6l0,0l6.1-6.7v22.8c0,2.7,2.2,4.8,4.8,4.8s4.8-2.2,4.8-4.8V61.4
	l6.1,6.7l0,0c0.9,1,2.2,1.6,3.6,1.6c2.7,0,4.8-2.2,4.8-4.8C118.9,63.6,118.4,62.5,117.7,61.7z"/>
</svg>
