<?xml version="1.0" encoding="utf-8"?>
<!-- Generator: Adobe Illustrator 21.0.0, SVG Export Plug-In . SVG Version: 6.00 Build 0)  -->
<svg version="1.1" id="图层_1" xmlns="http://www.w3.org/2000/svg" xmlns:xlink="http://www.w3.org/1999/xlink" x="0px" y="0px"
	 viewBox="0 0 200 200" style="enable-background:new 0 0 200 200;" xml:space="preserve">
<style type="text/css">
	.st0{fill:#767676;}
</style>
<g>
	<path class="st0" d="M79.8,168.8H156c7,0,12.7-5.7,12.7-12.7V80.8V65.2V44c0-7-5.7-12.7-12.7-12.7h-22c-4.3,0-7.8,2.5-7.8,6.8
		c0,3.2,3.5,5.8,7.8,5.8h22.1v112.2H43.9V43.9h24.6c4.3,0,7.8-2.7,7.8-5.8c0-4.3-3.5-6.8-7.8-6.8H44c-7,0-12.7,5.7-12.7,12.7v112
		c0,7,5.7,12.7,12.7,12.7h20.2"/>
	<path class="st0" d="M75.8,85.5c2.9,2.9,6.7,1.4,12.1-4l5.6-5.6v48.9c0,4.3,2.5,13.8,6.8,13.8s6.8-9.5,6.8-13.8V75.5l5,5
		c6.2,6.2,9.6,8.5,13.1,5c3.4-3.4,1.6-6.4-2-10.1l0,0l-17.7-17.7c-3.1-3.1-8-3.1-11.1,0l0,0L76.8,75.4C73,79.2,73.2,83.4,75.8,85.5z
		"/>
	<path class="st0" d="M93.5,124.8c0,10,0.8,13.8,6.8,13.8c6.6,0,6.8-5,6.8-13.8"/>
</g>
</svg>
